<?xml version="1.0" encoding="UTF-8" standalone="no"?>
<!DOCTYPE svg PUBLIC "-//W3C//DTD SVG 1.1//EN"
 "http://www.w3.org/Graphics/SVG/1.1/DTD/svg11.dtd">
<!-- Generated by graphviz version 12.2.1 (0)
 -->
<!-- Title: ModuleGraph Pages: 1 -->
<svg width="1422pt" height="430pt"
 viewBox="0.00 0.00 1422.00 430.00" xmlns="http://www.w3.org/2000/svg" xmlns:xlink="http://www.w3.org/1999/xlink">
<g id="graph0" class="graph" transform="scale(1 1) rotate(0) translate(4 426)">
<title>ModuleGraph</title>
<polygon fill="white" stroke="none" points="-4,4 -4,-426 1418,-426 1418,4 -4,4"/>
<!-- nixos.glap -->
<g id="node1" class="node">
<title>nixos.glap</title>
<polygon fill="none" stroke="black" points="1048,-422 824.25,-422 824.25,-344 1048,-344 1048,-422"/>
<text text-anchor="start" x="896" y="-405.7" font-family="Helvetica,sans-Serif" font-weight="bold" font-size="14.00">nixos.glap</text>
<text text-anchor="start" x="832.25" y="-377.7" font-family="Helvetica,sans-Serif" font-style="italic" font-size="14.00">hosts/laptop/configuration.nix</text>
<text text-anchor="start" x="836" y="-363.7" font-family="Helvetica,sans-Serif" font-style="italic" font-size="14.00">hosts/laptop/disko&#45;config.nix</text>
<text text-anchor="start" x="845.38" y="-349.7" font-family="Helvetica,sans-Serif" font-style="italic" font-size="14.00">hosts/laptop/hardware.nix</text>
</g>
<!-- nixos.guif -->
<g id="node2" class="node">
<title>nixos.guif</title>
<polygon fill="none" stroke="black" points="795.25,-308 621,-308 621,-258 795.25,-258 795.25,-308"/>
<text text-anchor="start" x="669.88" y="-291.7" font-family="Helvetica,sans-Serif" font-weight="bold" font-size="14.00">nixos.guif</text>
<text text-anchor="start" x="629" y="-263.7" font-family="Helvetica,sans-Serif" font-style="italic" font-size="14.00">modules/users/guif.nix</text>
</g>
<!-- nixos.glap&#45;&gt;nixos.guif -->
<g id="edge1" class="edge">
<title>nixos.glap&#45;&gt;nixos.guif</title>
<path fill="none" stroke="black" d="M846.67,-343.55C822.87,-333.32 797.57,-322.44 775.19,-312.83"/>
<polygon fill="black" stroke="black" points="776.75,-309.69 766.19,-308.96 773.99,-316.12 776.75,-309.69"/>
</g>
<!-- nixos.system&#45;laptop -->
<g id="node3" class="node">
<title>nixos.system&#45;laptop</title>
<polygon fill="none" stroke="black" points="1059.25,-308 813,-308 813,-258 1059.25,-258 1059.25,-308"/>
<text text-anchor="start" x="856.62" y="-291.7" font-family="Helvetica,sans-Serif" font-weight="bold" font-size="14.00">nixos.system&#45;laptop</text>
<text text-anchor="start" x="821" y="-263.7" font-family="Helvetica,sans-Serif" font-style="italic" font-size="14.00">modules/system/types/laptop.nix</text>
</g>
<!-- nixos.glap&#45;&gt;nixos.system&#45;laptop -->
<g id="edge2" class="edge">
<title>nixos.glap&#45;&gt;nixos.system&#45;laptop</title>
<path fill="none" stroke="black" d="M936.12,-343.55C936.12,-335.64 936.12,-327.35 936.12,-319.56"/>
<polygon fill="black" stroke="black" points="939.63,-319.73 936.13,-309.73 932.63,-319.73 939.63,-319.73"/>
</g>
<!-- nixos.systemd&#45;boot -->
<g id="node13" class="node">
<title>nixos.systemd&#45;boot</title>
<polygon fill="none" stroke="black" points="1392.75,-308 1077.5,-308 1077.5,-258 1392.75,-258 1392.75,-308"/>
<text text-anchor="start" x="1157.88" y="-291.7" font-family="Helvetica,sans-Serif" font-weight="bold" font-size="14.00">nixos.systemd&#45;boot</text>
<text text-anchor="start" x="1085.5" y="-263.7" font-family="Helvetica,sans-Serif" font-style="italic" font-size="14.00">modules/system/settings/systemd&#45;boot.nix</text>
</g>
<!-- nixos.glap&#45;&gt;nixos.systemd&#45;boot -->
<g id="edge3" class="edge">
<title>nixos.glap&#45;&gt;nixos.systemd&#45;boot</title>
<path fill="none" stroke="black" d="M1048.31,-345.23C1081.81,-334.25 1117.98,-322.39 1149.49,-312.07"/>
<polygon fill="black" stroke="black" points="1150.58,-315.39 1158.99,-308.95 1148.4,-308.74 1150.58,-315.39"/>
</g>
<!-- nixos.system&#45;default -->
<g id="node4" class="node">
<title>nixos.system&#45;default</title>
<polygon fill="none" stroke="black" points="655.88,-222 404.38,-222 404.38,-172 655.88,-172 655.88,-222"/>
<text text-anchor="start" x="447.62" y="-205.7" font-family="Helvetica,sans-Serif" font-weight="bold" font-size="14.00">nixos.system&#45;default</text>
<text text-anchor="start" x="412.38" y="-177.7" font-family="Helvetica,sans-Serif" font-style="italic" font-size="14.00">modules/system/types/default.nix</text>
</g>
<!-- nixos.system&#45;laptop&#45;&gt;nixos.system&#45;default -->
<g id="edge4" class="edge">
<title>nixos.system&#45;laptop&#45;&gt;nixos.system&#45;default</title>
<path fill="none" stroke="black" d="M817.87,-257.53C768.15,-247.25 710.16,-235.25 659.32,-224.73"/>
<polygon fill="black" stroke="black" points="660.23,-221.34 649.73,-222.75 658.81,-228.2 660.23,-221.34"/>
</g>
<!-- nixos.cosmic -->
<g id="node10" class="node">
<title>nixos.cosmic</title>
<polygon fill="none" stroke="black" points="928.38,-222 673.88,-222 673.88,-172 928.38,-172 928.38,-222"/>
<text text-anchor="start" x="751.25" y="-205.7" font-family="Helvetica,sans-Serif" font-weight="bold" font-size="14.00">nixos.cosmic</text>
<text text-anchor="start" x="681.88" y="-177.7" font-family="Helvetica,sans-Serif" font-style="italic" font-size="14.00">modules/programs/wm/cosmic.nix</text>
</g>
<!-- nixos.system&#45;laptop&#45;&gt;nixos.cosmic -->
<g id="edge5" class="edge">
<title>nixos.system&#45;laptop&#45;&gt;nixos.cosmic</title>
<path fill="none" stroke="black" d="M897.08,-257.7C882.25,-248.47 865.17,-237.85 849.57,-228.14"/>
<polygon fill="black" stroke="black" points="851.71,-225.35 841.37,-223.04 848.01,-231.3 851.71,-225.35"/>
</g>
<!-- nixos.steam -->
<g id="node11" class="node">
<title>nixos.steam</title>
<polygon fill="none" stroke="black" points="1195.75,-222 946.5,-222 946.5,-172 1195.75,-172 1195.75,-222"/>
<text text-anchor="start" x="1023.5" y="-205.7" font-family="Helvetica,sans-Serif" font-weight="bold" font-size="14.00">nixos.steam</text>
<text text-anchor="start" x="954.5" y="-177.7" font-family="Helvetica,sans-Serif" font-style="italic" font-size="14.00">modules/programs/wm/steam.nix</text>
</g>
<!-- nixos.system&#45;laptop&#45;&gt;nixos.steam -->
<g id="edge6" class="edge">
<title>nixos.system&#45;laptop&#45;&gt;nixos.steam</title>
<path fill="none" stroke="black" d="M975.17,-257.7C990,-248.47 1007.08,-237.85 1022.68,-228.14"/>
<polygon fill="black" stroke="black" points="1024.24,-231.3 1030.88,-223.04 1020.54,-225.35 1024.24,-231.3"/>
</g>
<!-- nixos.templates -->
<g id="node12" class="node">
<title>nixos.templates</title>
<polygon fill="none" stroke="black" points="1414,-222 1214.25,-222 1214.25,-172 1414,-172 1414,-222"/>
<text text-anchor="start" x="1251.12" y="-205.7" font-family="Helvetica,sans-Serif" font-weight="bold" font-size="14.00">nixos.templates</text>
<text text-anchor="start" x="1222.25" y="-177.7" font-family="Helvetica,sans-Serif" font-style="italic" font-size="14.00">modules/nix/templates.nix</text>
</g>
<!-- nixos.system&#45;laptop&#45;&gt;nixos.templates -->
<g id="edge7" class="edge">
<title>nixos.system&#45;laptop&#45;&gt;nixos.templates</title>
<path fill="none" stroke="black" d="M1046.22,-257.53C1095.46,-246.59 1153.4,-233.72 1202.79,-222.74"/>
<polygon fill="black" stroke="black" points="1203.36,-226.2 1212.36,-220.61 1201.84,-219.37 1203.36,-226.2"/>
</g>
<!-- nixos.system&#45;minimal -->
<g id="node5" class="node">
<title>nixos.system&#45;minimal</title>
<polygon fill="none" stroke="black" points="258.25,-136 0,-136 0,-86 258.25,-86 258.25,-136"/>
<text text-anchor="start" x="44" y="-119.7" font-family="Helvetica,sans-Serif" font-weight="bold" font-size="14.00">nixos.system&#45;minimal</text>
<text text-anchor="start" x="8" y="-91.7" font-family="Helvetica,sans-Serif" font-style="italic" font-size="14.00">modules/system/types/minimal.nix</text>
</g>
<!-- nixos.system&#45;default&#45;&gt;nixos.system&#45;minimal -->
<g id="edge8" class="edge">
<title>nixos.system&#45;default&#45;&gt;nixos.system&#45;minimal</title>
<path fill="none" stroke="black" d="M413.33,-171.53C364.32,-161.27 307.18,-149.3 257.04,-138.8"/>
<polygon fill="black" stroke="black" points="257.78,-135.37 247.27,-136.75 256.34,-142.22 257.78,-135.37"/>
</g>
<!-- nixos.fonts -->
<g id="node7" class="node">
<title>nixos.fonts</title>
<polygon fill="none" stroke="black" points="524,-136 276.25,-136 276.25,-86 524,-86 524,-136"/>
<text text-anchor="start" x="356.62" y="-119.7" font-family="Helvetica,sans-Serif" font-weight="bold" font-size="14.00">nixos.fonts</text>
<text text-anchor="start" x="284.25" y="-91.7" font-family="Helvetica,sans-Serif" font-style="italic" font-size="14.00">modules/system/settings/font.nix</text>
</g>
<!-- nixos.system&#45;default&#45;&gt;nixos.fonts -->
<g id="edge9" class="edge">
<title>nixos.system&#45;default&#45;&gt;nixos.fonts</title>
<path fill="none" stroke="black" d="M492.52,-171.7C478.38,-162.56 462.11,-152.05 447.2,-142.42"/>
<polygon fill="black" stroke="black" points="449.21,-139.55 438.91,-137.06 445.41,-145.43 449.21,-139.55"/>
</g>
<!-- nixos.home&#45;manager -->
<g id="node8" class="node">
<title>nixos.home&#45;manager</title>
<polygon fill="none" stroke="black" points="778,-136 542.25,-136 542.25,-86 778,-86 778,-136"/>
<text text-anchor="start" x="577.25" y="-119.7" font-family="Helvetica,sans-Serif" font-weight="bold" font-size="14.00">nixos.home&#45;manager</text>
<text text-anchor="start" x="550.25" y="-91.7" font-family="Helvetica,sans-Serif" font-style="italic" font-size="14.00">modules/nix/home&#45;manager.nix</text>
</g>
<!-- nixos.system&#45;default&#45;&gt;nixos.home&#45;manager -->
<g id="edge10" class="edge">
<title>nixos.system&#45;default&#45;&gt;nixos.home&#45;manager</title>
<path fill="none" stroke="black" d="M567.73,-171.7C581.87,-162.56 598.14,-152.05 613.05,-142.42"/>
<polygon fill="black" stroke="black" points="614.84,-145.43 621.34,-137.06 611.04,-139.55 614.84,-145.43"/>
</g>
<!-- nixos.local -->
<g id="node9" class="node">
<title>nixos.local</title>
<polygon fill="none" stroke="black" points="1047.88,-136 796.38,-136 796.38,-86 1047.88,-86 1047.88,-136"/>
<text text-anchor="start" x="880.5" y="-119.7" font-family="Helvetica,sans-Serif" font-weight="bold" font-size="14.00">nixos.local</text>
<text text-anchor="start" x="804.38" y="-91.7" font-family="Helvetica,sans-Serif" font-style="italic" font-size="14.00">modules/system/settings/local.nix</text>
</g>
<!-- nixos.system&#45;default&#45;&gt;nixos.local -->
<g id="edge11" class="edge">
<title>nixos.system&#45;default&#45;&gt;nixos.local</title>
<path fill="none" stroke="black" d="M644.3,-171.53C692.21,-161.27 748.07,-149.3 797.08,-138.8"/>
<polygon fill="black" stroke="black" points="797.55,-142.27 806.6,-136.76 796.09,-135.43 797.55,-142.27"/>
</g>
<!-- nixos.nix&#45;settings -->
<g id="node6" class="node">
<title>nixos.nix&#45;settings</title>
<polygon fill="none" stroke="black" points="222.25,-50 36,-50 36,0 222.25,0 222.25,-50"/>
<text text-anchor="start" x="59.38" y="-33.7" font-family="Helvetica,sans-Serif" font-weight="bold" font-size="14.00">nixos.nix&#45;settings</text>
<text text-anchor="start" x="44" y="-5.7" font-family="Helvetica,sans-Serif" font-style="italic" font-size="14.00">modules/nix/settings.nix</text>
</g>
<!-- nixos.system&#45;minimal&#45;&gt;nixos.nix&#45;settings -->
<g id="edge12" class="edge">
<title>nixos.system&#45;minimal&#45;&gt;nixos.nix&#45;settings</title>
<path fill="none" stroke="black" d="M129.12,-85.7C129.12,-78.22 129.12,-69.81 129.12,-61.72"/>
<polygon fill="black" stroke="black" points="132.63,-61.76 129.13,-51.76 125.63,-61.76 132.63,-61.76"/>
</g>
</g>
</svg>
